:FULLY-SPECIFIED
:FORCE-ALL-JOINTS-BE-3DOF
:DEGREES
204
root 4.89678 15.2178 -25.4613 7.2984 2.21571 4.70963
lfemur 3.62577 -4.64928 2.74927
ltibia 8.20538 -0 0
lfoot -29.6692 -14.697 -0.350264
ltoes 49.7685 -0 0
rfemur -28.3522 -18.0326 -8.016
rtibia 48.8673 -0 0
rfoot -27.1019 13.2925 -0.0197429
rtoes 58.0857 -0 0
lowerback -2.2956 -2.01484 -0.864583
upperback -0.626731 -2.62959 -6.76229
thorax 0.361102 -1.32857 -6.61208
lowerneck -11.4483 -0.0502009 5.12249
upperneck 3.44191 -0.997661 2.81824
head 3.15203 -0.29421 -0.0443233
lclavicle 1.98785e-16 1.43125e-14 0
lhumerus -57.7931 -44.3559 115.254
lradius 54.8789 -0 0
lwrist 23.8967 0 0
lhand 38.1866 29.5518 0.0177518
lfingers 7.12502 -0 0
lthumb 60.8535 42.2335 -0.0201625
rclavicle 1.98785e-16 1.43125e-14 0
rhumerus -15.3229 -2.57626 -24.5206
rradius 88.3881 -0 0
rwrist -21.5139 0 0
rhand -25.7355 -45.1366 9.1259
rfingers 7.12502 -0 0
rthumb -1.72853 54.2337 -19.3506
205
root 4.87245 15.1927 -25.4733 7.35645 1.82904 4.72101
lfemur 3.77806 -4.52347 2.66695
ltibia 8.25384 -0 0
lfoot -30.3772 -14.1182 -0.321617
ltoes 49.547 -0 0
rfemur -28.9278 -18.4382 -7.86829
rtibia 49.2841 -0 0
rfoot -27.1351 13.9884 -0.0181295
rtoes 58.3935 -0 0
lowerback -2.19016 -1.97219 -0.844069
upperback -0.634988 -2.57928 -6.77109
thorax 0.297377 -1.30455 -6.62668
lowerneck -11.3604 0.0813736 5.32833
upperneck 3.41612 -0.837485 2.70943
head 3.12518 -0.217832 -0.105691
lclavicle 1.98785e-16 1.43125e-14 0
lhumerus -58.0488 -44.5317 115.468
lradius 54.922 -0 0
lwrist 24.1657 0 0
lhand 37.9662 29.4575 0.0163024
lfingers 7.12502 -0 0
lthumb 60.6687 42.3611 -0.0185164
rclavicle 1.98785e-16 1.43125e-14 0
rhumerus -14.2261 -6.52219 -23.2547
rradius 85.9079 -0 0
rwrist -21.7001 0 0
rhand -29.6239 -47.9462 8.33933
rfingers 7.12502 -0 0
rthumb -5.78472 60.1942 -17.5574
206
root 4.84813 15.1676 -25.4852 7.41441 1.44235 4.73198
lfemur 3.93014 -4.39743 2.58497
ltibia 8.30229 -0 0
lfoot -31.085 -13.5398 -0.285821
ltoes 49.3256 -0 0
rfemur -29.5058 -18.8424 -7.71592
rtibia 49.701 -0 0
rfoot -27.1683 14.6843 -0.0161131
rtoes 58.7014 -0 0
lowerback -2.0847 -1.92957 -0.823478
upperback -0.643253 -2.52897 -6.7799
thorax 0.233646 -1.28054 -6.64132
lowerneck -11.2721 0.212631 5.53438
upperneck 3.39003 -0.677358 2.60056
head 3.09825 -0.141482 -0.167093
lclavicle 1.98785e-16 1.43125e-14 0
lhumerus -58.3061 -44.7068 115.683
lradius 54.9651 -0 0
lwrist 24.4348 0 0
lhand 37.7459 29.3634 0.0144909
lfingers 7.12502 -0 0
lthumb 60.4839 42.4887 -0.0164588
rclavicle 1.98785e-16 1.43125e-14 0
rhumerus -13.2069 -10.4907 -22.0527
rradius 83.4277 -0 0
rwrist -21.8864 0 0
rhand -33.4605 -50.6896 7.36744
rfingers 7.12502 -0 0
rthumb -9.58516 65.9481 -15.3809
207
root 4.82381 15.1425 -25.4972 7.47229 1.05565 4.74257
lfemur 4.08202 -4.27118 2.50335
ltibia 8.35075 -0 0
lfoot -31.7923 -12.962 -0.242886
ltoes 49.1041 -0 0
rfemur -30.0864 -19.2451 -7.55887
rtibia 50.1179 -0 0
rfoot -27.2014 15.3802 -0.0136941
rtoes 59.0092 -0 0
lowerback -1.97924 -1.887 -0.802808
upperback -0.651526 -2.47867 -6.78871
thorax 0.169911 -1.25654 -6.65598
lowerneck -11.1832 0.34357 5.74063
upperneck 3.36364 -0.517281 2.49161
head 3.07124 -0.0651622 -0.228532
lclavicle 1.98785e-16 1.43125e-14 0
lhumerus -58.5652 -44.8812 115.901
lradius 55.0082 -0 0
lwrist 24.7038 0 0
lhand 37.5255 29.2692 0.012317
lfingers 7.12502 -0 0
lthumb 60.2991 42.6163 -0.0139897
rclavicle 1.98785e-16 1.43125e-14 0
rhumerus -12.258 -14.4791 -20.9051
rradius 80.9475 -0 0
rwrist -22.0726 0 0
rhand -37.2376 -53.3556 6.21724
rfingers 7.12502 -0 0
rthumb -13.1042 71.4829 -12.8565
